<svg xmlns="http://www.w3.org/2000/svg" viewBox="0 0 400 400">
  <rect width="400" height="400" rx="28" fill="#fffaf2"/>
  <rect x="14" y="14" width="372" height="372" rx="22" fill="#f7f1e7"/>
  <circle cx="330" cy="72" r="26" fill="#eeaa2f" opacity="0.9"/>
  <g fill="#167a58" opacity="0.9">
    <ellipse cx="330" cy="34" rx="8" ry="15"/>
    <ellipse cx="330" cy="110" rx="8" ry="15"/>
    <ellipse cx="292" cy="72" rx="15" ry="8"/>
    <ellipse cx="368" cy="72" rx="15" ry="8"/>
  </g>
  
      <path d="M170 300 v-96 a10 10 0 0 1 20 0 v-40 a10 10 0 0 1 20 0 v40 a10 10 0 0 1 20 0 v-24 a10 10 0 0 1 20 0 v80 q0 40 -40 40 Z" fill="#469cc8" opacity="0.85"/>
      <path d="M170 240 q-24 -18 -12 -34 q10 -10 22 6" fill="#469cc8" opacity="0.85"/>
</svg>
