<svg xmlns="http://www.w3.org/2000/svg" viewBox="0 0 400 400">
  <rect width="400" height="400" rx="28" fill="#fffaf2"/>
  <rect x="14" y="14" width="372" height="372" rx="22" fill="#f7f1e7"/>
  <circle cx="330" cy="72" r="26" fill="#eeaa2f" opacity="0.9"/>
  <g fill="#167a58" opacity="0.9">
    <ellipse cx="330" cy="34" rx="8" ry="15"/>
    <ellipse cx="330" cy="110" rx="8" ry="15"/>
    <ellipse cx="292" cy="72" rx="15" ry="8"/>
    <ellipse cx="368" cy="72" rx="15" ry="8"/>
  </g>
  
      <path d="M155 190 h90 l-10 100 h-70 Z" fill="#d4ba93"/>
      <path d="M155 190 h90 l-10 100 h-70 Z" fill="none" stroke="#0c5b43" stroke-width="6"/>
      <path d="M245 205 q34 8 0 44" fill="none" stroke="#0c5b43" stroke-width="7"/>
      <path d="M180 168 q6 -12 0 -22 M200 168 q6 -12 0 -22 M220 168 q6 -12 0 -22" fill="none" stroke="#167a58" stroke-width="6" stroke-linecap="round"/>
</svg>
